Coordinates
version=1
nRows=14
nColumns=24
inDegrees=yes

Units are S.I. units (second, meters, Newtons, ...)
Angles are in degrees.

endheader
time	pelvis_tilt	pelvis_list	pelvis_rotation	pelvis_tx	pelvis_ty	pelvis_tz	hip_flexion_r	hip_adduction_r	hip_rotation_r	knee_angle_r	ankle_angle_r	subtalar_angle_r	mtp_angle_r	hip_flexion_l	hip_adduction_l	hip_rotation_l	knee_angle_l	ankle_angle_l	subtalar_angle_l	mtp_angle_l	lumbar_extension	lumbar_bending	lumbar_rotation
      5.60000000	    -13.44732502	      6.94808970	      4.22910656	     -0.28093539	     -0.03689855	      2.04932856	     13.38934552	    -11.79982847	    -14.29139665	    -54.48916571	    -25.46209282	     -4.59608039	     31.49000886	     31.59691711	     13.65474615	     -2.43409813	    -21.35596340	     -4.13854619	     -9.66206895	      8.59883437	      9.40365896	     -9.44846536	     -1.86896002
      5.61000000	    -13.40762936	      7.05125905	      4.19172760	     -0.26843405	     -0.03497196	      2.04876722	     15.22465777	    -11.87315455	    -13.29953820	    -56.66033935	    -23.47776919	     -6.60627044	     28.44563196	     30.46084873	     13.65788054	     -2.94617688	    -20.89273150	     -3.73681861	     -9.20116271	     10.99982146	      9.30455202	     -9.52062784	     -2.08290432
      5.62000000	    -13.28129804	      7.05903823	      4.08997878	     -0.25603367	     -0.03279005	      2.04832322	     16.97555269	    -11.76012089	    -12.28381317	    -58.45287499	    -21.59456675	     -8.29102180	     25.57702410	     29.18495789	     13.52587913	     -3.44634620	    -20.33636952	     -3.30060667	     -8.59404444	     13.36628534	      9.11589005	     -9.47389126	     -2.28117940
      5.63000000	    -13.24689497	      6.99064050	      3.99044688	     -0.24375104	     -0.03071066	      2.04783087	     18.83625358	    -11.54348115	    -11.30427111	    -59.91992504	    -19.94037661	     -9.60894368	     23.29749796	     27.96633063	     13.35795974	     -3.74925439	    -19.72934097	     -2.69723415	     -7.95867876	     14.65397000	      9.02326238	     -9.34085217	     -2.50113462
      5.64000000	    -12.96614106	      6.98799614	      3.76693029	     -0.23143903	     -0.02838880	      2.04736354	     20.39787851	    -11.35248520	    -10.29544694	    -60.98037825	    -18.61076916	    -10.58367720	     22.74291732	     26.36205318	     13.27119144	     -3.84698983	    -18.91667836	     -2.12651860	     -7.64407341	     14.84629134	      8.68514294	     -9.22129115	     -2.57002895
      5.65000000	    -12.87840387	      6.91392008	      3.69738918	     -0.21918509	     -0.02647329	      2.04677696	     22.12674962	    -11.13010289	     -9.51687599	    -61.81612263	    -17.05586633	    -11.20049226	     20.16021777	     24.94549121	     13.21868052	     -3.63897413	    -18.09328527	     -1.55144866	     -7.47494293	     14.56331133	      8.54317887	     -9.07679020	     -2.81489229
      5.66000000	    -12.74143324	      6.78718924	      3.66720729	     -0.20696254	     -0.02465923	      2.04601032	     23.69073944	    -10.88962444	     -8.85855293	    -62.23051453	    -15.69164981	    -11.47044620	     20.29072304	     23.45801930	     13.15782060	     -3.28426456	    -17.22353306	     -1.12718912	     -7.52462063	     14.44416667	      8.34259415	     -8.86376065	     -3.09038758
      5.67000000	    -12.61649060	      6.59984906	      3.65266563	     -0.19481227	     -0.02300833	      2.04526899	     25.18919507	    -10.57544098	     -8.30067303	    -62.29975711	    -14.33119076	    -11.60006552	     20.45788683	     22.01095618	     13.03867914	     -2.88025488	    -16.38895479	     -0.70529645	     -7.61795729	     14.18562606	      8.15038775	     -8.60147501	     -3.35171554
      5.68000000	    -12.41751519	      6.33860312	      3.75222066	     -0.18277277	     -0.02141076	      2.04436138	     26.46184159	    -10.23759643	     -7.97507564	    -61.98209349	    -12.97615182	    -11.67407775	     20.97162407	     20.54934235	     12.89165523	     -2.31647354	    -15.74121761	      0.18123351	     -7.49922237	     11.67053498	      7.84778043	     -8.27282860	     -3.72371120
      5.69000000	    -12.33564207	      6.01295878	      3.87232907	     -0.17084877	     -0.02008932	      2.04349046	     27.78961996	     -9.82341323	     -7.68653591	    -61.37350672	    -11.59552000	    -11.54652038	     21.25359630	     19.25341847	     12.64965870	     -1.87769606	    -15.05419188	      0.57165214	     -7.55167341	     11.58991402	      7.66428922	     -7.89953249	     -4.06540270
      5.70000000	    -12.19722431	      5.60222336	      4.10091207	     -0.15901202	     -0.01880080	      2.04250487	     28.92006639	     -9.37351878	     -7.58919153	    -60.41800909	    -10.36364536	    -11.39518038	     21.52800298	     17.93541926	     12.33505524	     -1.35958329	    -14.43369639	      0.99453662	     -7.53534728	     11.47360615	      7.39882457	     -7.45596573	     -4.50001125
      5.71000000	    -12.03597549	      5.14078459	      4.39403703	     -0.14720943	     -0.01761469	      2.04141275	     29.91743466	     -8.92475547	     -7.65046711	    -59.16010836	     -9.34987692	    -11.29182028	     21.70622192	     16.61977707	     11.96600318	     -0.86647928	    -13.84529512	      1.45156533	     -7.46255722	     11.37384588	      7.10733390	     -6.96215343	     -4.96844178
      5.72000000	    -11.90721057	      4.66832598	      4.71871030	     -0.13552265	     -0.01663224	      2.04035787	     30.88096297	     -8.47583091	     -7.75645921	    -57.66470491	     -8.50651454	    -11.19808219	     21.72093137	     15.38441803	     11.56493405	     -0.38971134	    -13.31094409	      1.91538009	     -7.30463648	     11.37703160	      6.83572063	     -6.47169929	     -5.42606871
      5.73000000	    -11.75635244	      4.17650665	      5.09192352	     -0.12380962	     -0.01576068	      2.03921091	     31.70988785	     -8.06896958	     -8.01460802	    -55.91019341	     -7.77365675	    -11.07799039	     21.49189265	     14.13113361	     11.13210856	      0.01620931	    -12.76855069	      2.37515722	     -7.09858413	     11.45837564	      6.54884407	     -5.95721931	     -5.92794266
